<svg width="1893" height="1223" viewBox="0 0 1893 1223" fill="none" xmlns="http://www.w3.org/2000/svg">
<path d="M378.6 61.15C567.9 44.8433 757.2 32.6133 946.5 24.46C1135.8 32.6133 1325.1 44.8433 1514.4 61.15" stroke="#8B9B4B" stroke-width="2.28234"/>
<path d="M94.6501 122.3C82.0301 285.366 82.0301 448.433 94.6501 611.5C82.0301 774.566 82.0301 937.633 94.6501 1100.7" stroke="#8B9B4B" stroke-width="1.52156"/>
<path d="M1798.35 122.3C1810.97 285.366 1810.97 448.433 1798.35 611.5C1810.97 774.566 1810.97 937.633 1798.35 1100.7" stroke="#8B9B4B" stroke-width="1.52156"/>
<path d="M283.95 97.8404C246.09 73.3804 246.09 52.9971 283.95 36.6904C321.81 52.9971 321.81 73.3804 283.95 97.8404Z" stroke="#8B9B4B" stroke-width="1.52156"/>
<path d="M1609.05 97.8404C1646.91 73.3804 1646.91 52.9971 1609.05 36.6904C1571.19 52.9971 1571.19 73.3804 1609.05 97.8404Z" stroke="#8B9B4B" stroke-width="1.52156"/>
</svg>
