<svg width="1893" height="701" viewBox="0 0 1893 701" fill="none" xmlns="http://www.w3.org/2000/svg">
<path d="M283.95 56.0198C473.25 42.0148 694.1 32.6781 946.5 28.0098C1198.9 32.6781 1419.75 42.0148 1609.05 56.0198" stroke="#F5F3E8" stroke-width="2.30267"/>
<path d="M151.44 105.038C126.2 175.063 119.89 256.758 132.51 350.125C119.89 443.492 126.2 525.188 151.44 595.213" stroke="#F5F3E8" stroke-width="1.727"/>
<path d="M1741.56 105.038C1766.8 175.063 1773.11 256.758 1760.49 350.125C1773.11 443.492 1766.8 525.188 1741.56 595.213" stroke="#F5F3E8" stroke-width="1.727"/>
<path d="M283.95 644.23C473.25 658.235 694.1 667.572 946.5 672.24C1198.9 667.572 1419.75 658.235 1609.05 644.23" stroke="#F5F3E8" stroke-width="2.30267"/>
<path d="M227.16 35.0124C176.68 49.0174 176.68 65.3565 227.16 84.0299C277.64 65.3565 277.64 49.0174 227.16 35.0124ZM227.16 35.0124V14.0049" stroke="#F5F3E8" stroke-width="1.727"/>
<path d="M1665.84 35.0124C1716.32 49.0174 1716.32 65.3565 1665.84 84.0299C1615.36 65.3565 1615.36 49.0174 1665.84 35.0124ZM1665.84 35.0124V14.0049" stroke="#F5F3E8" stroke-width="1.727"/>
</svg>
