<svg width="1893" height="548" viewBox="0 0 1893 548" fill="none" xmlns="http://www.w3.org/2000/svg">
<path d="M189.3 65.7599C378.6 51.1465 631 40.1865 946.5 32.8799C1262 40.1865 1514.4 51.1465 1703.7 65.7599" stroke="#F5F3E8" stroke-width="2.54628"/>
<path d="M151.44 109.6C126.2 182.667 119.89 255.733 132.51 328.8C119.89 401.867 126.2 465.8 151.44 520.6" stroke="#F5F3E8" stroke-width="2.03702"/>
<path d="M1741.56 109.6C1766.8 182.667 1773.11 255.733 1760.49 328.8C1773.11 401.867 1766.8 465.8 1741.56 520.6" stroke="#F5F3E8" stroke-width="2.03702"/>
<path d="M189.3 191.8C138.82 210.066 126.2 228.333 151.44 246.6C201.92 235.64 214.54 217.373 189.3 191.8Z" stroke="#F5F3E8" stroke-width="1.52777"/>
<path d="M1703.7 191.8C1754.18 210.066 1766.8 228.333 1741.56 246.6C1691.08 235.64 1678.46 217.373 1703.7 191.8Z" stroke="#F5F3E8" stroke-width="1.52777"/>
</svg>
