<svg width="720" height="48" viewBox="0 0 720 48" fill="none" xmlns="http://www.w3.org/2000/svg">
<path d="M120 24C160 24 200 24 240 24C280 16 320 16 360 24C400 32 440 32 480 24C520 24 560 24 600 24" stroke="#8B9B4B" stroke-width="1.8"/>
<path d="M360 28.8C362.651 28.8 364.8 26.6509 364.8 24C364.8 21.349 362.651 19.2 360 19.2C357.349 19.2 355.2 21.349 355.2 24C355.2 26.6509 357.349 28.8 360 28.8Z" fill="#8B9B4B"/>
<path d="M348 24C344 20 344 16 348 12M372 24C376 20 376 16 372 12" stroke="#8B9B4B" stroke-width="1.2"/>
</svg>
