<svg width="1893" height="732" viewBox="0 0 1893 732" fill="none" xmlns="http://www.w3.org/2000/svg">
<g clip-path="url(#clip0_1_98)">
<path d="M0 73.1996C252.4 63.4396 473.25 53.6796 662.55 43.9196C851.85 34.1596 1041.15 34.1596 1230.45 43.9196C1419.75 53.6796 1640.6 63.4396 1893 73.1996" stroke="#F5F3E8" stroke-width="2.35429"/>
<path d="M94.65 109.8C69.41 183 63.1 268.4 75.72 366C63.1 463.6 69.41 549 94.65 622.2" stroke="#F5F3E8" stroke-width="1.76572"/>
<path d="M1798.35 109.8C1823.59 183 1829.9 268.4 1817.28 366C1829.9 463.6 1823.59 549 1798.35 622.2" stroke="#F5F3E8" stroke-width="1.76572"/>
<path d="M0 658.8C252.4 668.56 473.25 678.32 662.55 688.08C851.85 697.84 1041.15 697.84 1230.45 688.08C1419.75 678.32 1640.6 668.56 1893 658.8" stroke="#F5F3E8" stroke-width="2.35429"/>
</g>
<defs>
<clipPath id="clip0_1_98">
<rect width="1893" height="732" fill="white"/>
</clipPath>
</defs>
</svg>
