<svg width="1893" height="745" viewBox="0 0 1893 745" fill="none" xmlns="http://www.w3.org/2000/svg">
<path d="M283.95 44.6551C473.25 34.7318 694.1 27.2893 946.5 22.3276C1198.9 27.2893 1419.75 34.7318 1609.05 44.6551" stroke="#5B92A8" stroke-width="1.78043"/>
<path d="M340.74 22.3274C302.88 32.2507 302.88 44.6549 340.74 59.5399C378.6 44.6549 378.6 32.2507 340.74 22.3274ZM340.74 22.3274V7.44238" stroke="#5B92A8" stroke-width="1.18696"/>
<path d="M1552.26 22.3274C1590.12 32.2507 1590.12 44.6549 1552.26 59.5399C1514.4 44.6549 1514.4 32.2507 1552.26 22.3274ZM1552.26 22.3274V7.44238" stroke="#5B92A8" stroke-width="1.18696"/>
<path d="M113.58 111.638C100.96 210.871 100.96 310.104 113.58 409.338C100.96 508.571 100.96 595.4 113.58 669.825" stroke="#5B92A8" stroke-width="1.18696"/>
<path d="M1779.42 111.638C1792.04 210.871 1792.04 310.104 1779.42 409.338C1792.04 508.571 1792.04 595.4 1779.42 669.825" stroke="#5B92A8" stroke-width="1.18696"/>
<path d="M283.95 699.595C473.25 709.518 694.1 716.961 946.5 721.922C1198.9 716.961 1419.75 709.518 1609.05 699.595" stroke="#5B92A8" stroke-width="1.78043"/>
</svg>
