<svg width="1893" height="889" viewBox="0 0 1893 889" fill="none" xmlns="http://www.w3.org/2000/svg">
<g clip-path="url(#clip0_1_33)">
<path d="M0 133.35C126.2 115.57 252.4 100.754 378.6 88.9002C567.9 65.1935 757.2 50.3769 946.5 44.4502C1135.8 50.3769 1325.1 65.1935 1514.4 88.9002C1640.6 100.754 1766.8 115.57 1893 133.35" stroke="#F5F3E8" stroke-width="3.89177"/>
<path d="M189.3 160.02C378.6 124.46 631 100.753 946.5 88.8999C1262 100.753 1514.4 124.46 1703.7 160.02" stroke="#F5F3E8" stroke-width="2.59452"/>
<path d="M94.65 177.8C132.51 266.7 138.82 355.6 113.58 444.5C88.34 533.4 100.96 622.3 151.44 711.2" stroke="#F5F3E8" stroke-width="2.59452"/>
<path d="M189.3 222.25C227.16 311.15 233.47 385.233 208.23 444.5C182.99 503.767 189.3 577.85 227.16 666.75" stroke="#F5F3E8" stroke-width="1.94589"/>
<path d="M1798.35 177.8C1760.49 266.7 1754.18 355.6 1779.42 444.5C1804.66 533.4 1792.04 622.3 1741.56 711.2" stroke="#F5F3E8" stroke-width="2.59452"/>
<path d="M1703.7 222.25C1665.84 311.15 1659.53 385.233 1684.77 444.5C1710.01 503.767 1703.7 577.85 1665.84 666.75" stroke="#F5F3E8" stroke-width="1.94589"/>
<path d="M0 755.65C126.2 773.43 252.4 788.247 378.6 800.1C567.9 823.807 757.2 838.623 946.5 844.55C1135.8 838.623 1325.1 823.807 1514.4 800.1C1640.6 788.247 1766.8 773.43 1893 755.65" stroke="#F5F3E8" stroke-width="3.89177"/>
<path d="M227.16 311.15C176.68 328.93 138.82 349.673 113.58 373.38C164.06 385.233 214.54 379.307 265.02 355.6" stroke="#F5F3E8" stroke-width="1.94589"/>
<path d="M189.3 533.4C138.82 551.18 107.27 571.923 94.65 595.63C145.13 607.483 195.61 601.557 246.09 577.85" stroke="#F5F3E8" stroke-width="1.94589"/>
<path d="M1665.84 311.15C1716.32 328.93 1754.18 349.673 1779.42 373.38C1728.94 385.233 1678.46 379.307 1627.98 355.6" stroke="#F5F3E8" stroke-width="1.94589"/>
<path d="M1703.7 533.4C1754.18 551.18 1785.73 571.923 1798.35 595.63C1747.87 607.483 1697.39 601.557 1646.91 577.85" stroke="#F5F3E8" stroke-width="1.94589"/>
<path d="M946.5 800.1V755.65M908.64 755.65C933.88 737.87 959.12 737.87 984.36 755.65" stroke="#F5F3E8" stroke-width="2.59452"/>
<path d="M567.9 782.32C631 770.467 694.1 770.467 757.2 782.32C820.3 794.174 883.4 794.174 946.5 782.32" stroke="#F5F3E8" stroke-width="1.94589"/>
<path d="M946.5 782.32C1009.6 794.174 1072.7 794.174 1135.8 782.32C1198.9 770.467 1262 770.467 1325.1 782.32" stroke="#F5F3E8" stroke-width="1.94589"/>
</g>
<defs>
<clipPath id="clip0_1_33">
<rect width="1893" height="889" fill="white"/>
</clipPath>
</defs>
</svg>
